<svg width="1353" height="319" viewBox="0 0 1353 319" fill="none" xmlns="http://www.w3.org/2000/svg">
<path d="M187.897 71.248L114.523 198.363L184 318.772L276.021 159.386L368 0H229.005L187.897 71.248Z" fill="#1697F6"/>
<path d="M92.0209 159.386L96.8398 167.768L165.478 48.8258L193.68 0H184H0L92.0209 159.386Z" fill="#AEDDFF"/>
<path d="M229.005 0C263.785 114.458 184 318.772 184 318.772L114.523 198.363L229.005 0Z" fill="#1867C0"/>
<path d="M193.68 0C47.1426 0 96.8405 167.768 96.8405 167.768L193.68 0Z" fill="#7BC6FF"/>
<path d="M492.935 207H456.865L398.835 92.2764H433.402L475.15 178.611L516.815 92.2764H551.382L492.935 207ZM705.683 168.341C705.683 174.075 704.264 179.474 701.425 184.54C698.586 189.605 694.328 194.03 688.65 197.815C682.972 201.601 675.875 204.606 667.358 206.833C658.897 209.004 648.989 210.089 637.634 210.089C626.278 210.089 616.314 209.004 607.742 206.833C599.226 204.606 592.128 201.601 586.451 197.815C580.773 194.03 576.515 189.605 573.676 184.54C570.837 179.474 569.417 174.075 569.417 168.341V92.2764H600.311V157.236C600.311 161.077 600.784 164.723 601.73 168.174C602.732 171.57 604.569 174.548 607.241 177.108C609.969 179.669 613.754 181.701 618.597 183.204C623.495 184.707 629.841 185.458 637.634 185.458C645.371 185.458 651.661 184.707 656.504 183.204C661.347 181.701 665.104 179.669 667.776 177.108C670.503 174.548 672.34 171.57 673.287 168.174C674.233 164.723 674.706 161.077 674.706 157.236V92.2764H705.683V168.341ZM740.751 207V92.2764H856.895V116.741H772.563V135.694H852.553V160.159H772.563V182.536H858.063V207H740.751ZM952.331 117.242V207H921.354V117.242H872.675V92.2764H1001.09V117.242H952.331ZM1021.63 207V92.2764H1052.61V207H1021.63ZM1119.57 116.741V136.696H1194.14V161.161H1119.57V207H1088.6V92.2764H1198.23V116.741H1119.57ZM1296.67 160.159V207H1265.77V160.159L1210.17 92.2764H1244.9L1281.31 138.45L1317.54 92.2764H1352.28L1296.67 160.159Z" fill="black" fill-opacity="0.87"/>
</svg>
